<svg width="131" height="18" viewBox="0 0 131 18" fill="none" xmlns="http://www.w3.org/2000/svg">
    <path d="M16.0458 12.6241C15.9235 13.5156 15.6351 14.3001 15.1806 14.9777C14.7436 15.6374 14.1755 16.1902 13.4764 16.636C12.7947 17.0817 12.0081 17.4116 11.1167 17.6256C10.2253 17.8574 9.26392 17.9733 8.23265 17.9733C6.97416 17.9733 5.83802 17.8128 4.82423 17.4918C3.82792 17.1887 2.97145 16.7162 2.2548 16.0743C1.53816 15.4324 0.987569 14.6211 0.603029 13.6404C0.218489 12.6597 0.0174791 11.5097 0 10.1902C0 8.87073 0.19227 7.72065 0.57681 6.73997C0.96135 5.74146 1.5032 4.92125 2.20237 4.27935C2.91901 3.61961 3.78422 3.12927 4.79801 2.80832C5.8118 2.46954 6.9392 2.30015 8.18022 2.30015C9.21148 2.30015 10.1728 2.41605 11.0643 2.64784C11.9732 2.87964 12.7772 3.21842 13.4764 3.66419C14.1755 4.10996 14.7524 4.67162 15.2068 5.34918C15.6613 6.00891 15.9497 6.78455 16.072 7.67608H13.4502C13.3453 7.15899 13.1355 6.70431 12.8209 6.31203C12.5238 5.91976 12.1392 5.5899 11.6673 5.32244C11.2128 5.05498 10.6797 4.84993 10.068 4.70728C9.47367 4.56464 8.83568 4.49331 8.154 4.49331C6.30121 4.51114 4.90289 4.97474 3.95901 5.8841C3.01514 6.79346 2.52573 8.21991 2.49077 10.1634C2.52573 12.0892 3.02388 13.5067 3.98523 14.416C4.96406 15.3254 6.37987 15.7801 8.23265 15.7801C9.6135 15.7801 10.7759 15.5215 11.7197 15.0045C12.6636 14.4874 13.2404 13.6939 13.4502 12.6241H16.0458Z" fill="white"/>
    <path d="M16.0458 12.6241C15.9235 13.5156 15.6351 14.3001 15.1806 14.9777C14.7436 15.6374 14.1755 16.1902 13.4764 16.636C12.7947 17.0817 12.0081 17.4116 11.1167 17.6256C10.2253 17.8574 9.26392 17.9733 8.23265 17.9733C6.97416 17.9733 5.83802 17.8128 4.82423 17.4918C3.82792 17.1887 2.97145 16.7162 2.2548 16.0743C1.53816 15.4324 0.987569 14.6211 0.603029 13.6404C0.218489 12.6597 0.0174791 11.5097 0 10.1902C0 8.87073 0.19227 7.72065 0.57681 6.73997C0.96135 5.74146 1.5032 4.92125 2.20237 4.27935C2.91901 3.61961 3.78422 3.12927 4.79801 2.80832C5.8118 2.46954 6.9392 2.30015 8.18022 2.30015C9.21148 2.30015 10.1728 2.41605 11.0643 2.64784C11.9732 2.87964 12.7772 3.21842 13.4764 3.66419C14.1755 4.10996 14.7524 4.67162 15.2068 5.34918C15.6613 6.00891 15.9497 6.78455 16.072 7.67608H13.4502C13.3453 7.15899 13.1355 6.70431 12.8209 6.31203C12.5238 5.91976 12.1392 5.5899 11.6673 5.32244C11.2128 5.05498 10.6797 4.84993 10.068 4.70728C9.47367 4.56464 8.83568 4.49331 8.154 4.49331C6.30121 4.51114 4.90289 4.97474 3.95901 5.8841C3.01514 6.79346 2.52573 8.21991 2.49077 10.1634C2.52573 12.0892 3.02388 13.5067 3.98523 14.416C4.96406 15.3254 6.37987 15.7801 8.23265 15.7801C9.6135 15.7801 10.7759 15.5215 11.7197 15.0045C12.6636 14.4874 13.2404 13.6939 13.4502 12.6241H16.0458Z" fill="url(#paint0_linear)"/>
    <path d="M35.5912 10.1634C35.5737 11.4651 35.3552 12.6062 34.9357 13.5869C34.5337 14.5498 33.9569 15.3522 33.2053 15.9941C32.4712 16.636 31.5885 17.1174 30.5572 17.4383C29.5434 17.7593 28.416 17.9198 27.175 17.9198C25.9165 17.9198 24.7804 17.7593 23.7666 17.4383C22.7528 17.1352 21.8788 16.6627 21.1447 16.0208C20.4281 15.3789 19.8687 14.5676 19.4667 13.5869C19.0647 12.6062 18.855 11.4562 18.8375 10.1367C18.8375 8.81724 19.0385 7.66716 19.4405 6.68648C19.8425 5.68796 20.4019 4.86776 21.1185 4.22585C21.8526 3.56612 22.7266 3.07578 23.7404 2.75483C24.7716 2.41605 25.9078 2.24666 27.1488 2.24666C28.4073 2.24666 29.5522 2.40713 30.5834 2.72808C31.6147 3.04903 32.4974 3.53938 33.2315 4.19911C33.9831 4.84101 34.5599 5.66122 34.9619 6.65973C35.3814 7.65825 35.5912 8.82615 35.5912 10.1634ZM21.3282 10.0832C21.3632 12.0089 21.8788 13.4264 22.8752 14.3358C23.8889 15.2273 25.3222 15.6731 27.175 15.6731C29.0278 15.6731 30.4698 15.2273 31.5011 14.3358C32.5323 13.4443 33.0655 12.0267 33.1004 10.0832C33.0655 8.13967 32.5236 6.72214 31.4749 5.83061C30.4261 4.92125 28.9754 4.46657 27.1226 4.46657C25.2698 4.46657 23.8452 4.92125 22.8489 5.83061C21.8701 6.72214 21.3632 8.13967 21.3282 10.0832Z" fill="white"/>
    <path d="M35.5912 10.1634C35.5737 11.4651 35.3552 12.6062 34.9357 13.5869C34.5337 14.5498 33.9569 15.3522 33.2053 15.9941C32.4712 16.636 31.5885 17.1174 30.5572 17.4383C29.5434 17.7593 28.416 17.9198 27.175 17.9198C25.9165 17.9198 24.7804 17.7593 23.7666 17.4383C22.7528 17.1352 21.8788 16.6627 21.1447 16.0208C20.4281 15.3789 19.8687 14.5676 19.4667 13.5869C19.0647 12.6062 18.855 11.4562 18.8375 10.1367C18.8375 8.81724 19.0385 7.66716 19.4405 6.68648C19.8425 5.68796 20.4019 4.86776 21.1185 4.22585C21.8526 3.56612 22.7266 3.07578 23.7404 2.75483C24.7716 2.41605 25.9078 2.24666 27.1488 2.24666C28.4073 2.24666 29.5522 2.40713 30.5834 2.72808C31.6147 3.04903 32.4974 3.53938 33.2315 4.19911C33.9831 4.84101 34.5599 5.66122 34.9619 6.65973C35.3814 7.65825 35.5912 8.82615 35.5912 10.1634ZM21.3282 10.0832C21.3632 12.0089 21.8788 13.4264 22.8752 14.3358C23.8889 15.2273 25.3222 15.6731 27.175 15.6731C29.0278 15.6731 30.4698 15.2273 31.5011 14.3358C32.5323 13.4443 33.0655 12.0267 33.1004 10.0832C33.0655 8.13967 32.5236 6.72214 31.4749 5.83061C30.4261 4.92125 28.9754 4.46657 27.1226 4.46657C25.2698 4.46657 23.8452 4.92125 22.8489 5.83061C21.8701 6.72214 21.3632 8.13967 21.3282 10.0832Z" fill="url(#paint1_linear)"/>
    <path d="M50.5147 15.5929C49.7806 16.4487 48.8717 17.0639 47.788 17.4383C46.7043 17.8128 45.4807 18 44.1174 18C43.1211 18 42.2121 17.8663 41.3906 17.5988C40.5691 17.3492 39.8612 16.9569 39.2669 16.422C38.6901 15.8871 38.2444 15.2184 37.9298 14.416C37.6151 13.6137 37.4578 12.6776 37.4578 11.6077V3.10253H39.8962V10.7786C39.8962 11.2244 39.9136 11.7415 39.9486 12.3299C40.001 12.9004 40.1584 13.4354 40.4205 13.9346C40.7002 14.4339 41.1284 14.8618 41.7053 15.2184C42.2995 15.5572 43.1385 15.7266 44.2222 15.7266C45.0962 15.7266 45.9002 15.6374 46.6344 15.4591C47.3685 15.263 47.9977 14.9331 48.5221 14.4695C49.064 14.0059 49.4835 13.373 49.7806 12.5706C50.0952 11.7504 50.2613 10.7073 50.2788 9.44131V3.10253H52.6909V17.2779H50.2788L50.5147 15.5929Z" fill="white"/>
    <path d="M50.5147 15.5929C49.7806 16.4487 48.8717 17.0639 47.788 17.4383C46.7043 17.8128 45.4807 18 44.1174 18C43.1211 18 42.2121 17.8663 41.3906 17.5988C40.5691 17.3492 39.8612 16.9569 39.2669 16.422C38.6901 15.8871 38.2444 15.2184 37.9298 14.416C37.6151 13.6137 37.4578 12.6776 37.4578 11.6077V3.10253H39.8962V10.7786C39.8962 11.2244 39.9136 11.7415 39.9486 12.3299C40.001 12.9004 40.1584 13.4354 40.4205 13.9346C40.7002 14.4339 41.1284 14.8618 41.7053 15.2184C42.2995 15.5572 43.1385 15.7266 44.2222 15.7266C45.0962 15.7266 45.9002 15.6374 46.6344 15.4591C47.3685 15.263 47.9977 14.9331 48.5221 14.4695C49.064 14.0059 49.4835 13.373 49.7806 12.5706C50.0952 11.7504 50.2613 10.7073 50.2788 9.44131V3.10253H52.6909V17.2779H50.2788L50.5147 15.5929Z" fill="url(#paint2_linear)"/>
    <path d="M64.867 4.84101C63.993 4.84101 63.189 4.94799 62.4549 5.16196C61.7207 5.3581 61.0827 5.67013 60.5409 6.09807C59.999 6.526 59.5795 7.08767 59.2824 7.78306C58.9853 8.46062 58.8279 9.28975 58.8105 10.2704L58.7842 17.2779H56.3721V3.10253H58.8105L58.4958 5.2422C59.2125 4.38633 60.1127 3.74443 61.1964 3.31649C62.2801 2.87073 63.5036 2.64784 64.867 2.64784H68.0394V4.84101H64.867Z" fill="white"/>
    <path d="M64.867 4.84101C63.993 4.84101 63.189 4.94799 62.4549 5.16196C61.7207 5.3581 61.0827 5.67013 60.5409 6.09807C59.999 6.526 59.5795 7.08767 59.2824 7.78306C58.9853 8.46062 58.8279 9.28975 58.8105 10.2704L58.7842 17.2779H56.3721V3.10253H58.8105L58.4958 5.2422C59.2125 4.38633 60.1127 3.74443 61.1964 3.31649C62.2801 2.87073 63.5036 2.64784 64.867 2.64784H68.0394V4.84101H64.867Z" fill="url(#paint3_linear)"/>
    <path d="M81.526 13.3195C81.5086 14.8351 81.0454 15.9851 80.1365 16.7697C79.245 17.5542 77.9428 17.9465 76.2299 17.9465H75.3384C73.6255 17.9465 72.2971 17.5542 71.3532 16.7697C70.4093 15.9673 69.9199 14.7548 69.885 13.1322C69.885 11.5453 70.3656 10.3774 71.327 9.62853C72.2883 8.86181 73.6255 8.47845 75.3384 8.47845H83.3876C83.3002 7.69391 83.0817 7.05201 82.7321 6.55275C82.3825 6.03566 81.9718 5.63447 81.4998 5.34918C81.0279 5.04606 80.5123 4.84101 79.9529 4.73403C79.4111 4.60921 78.9042 4.5468 78.4323 4.5468H78.1701C77.6981 4.5468 77.2087 4.58247 76.7018 4.65379C76.1949 4.72511 75.7055 4.85884 75.2336 5.05498C74.7616 5.23328 74.3334 5.48291 73.9489 5.80386C73.5643 6.12481 73.2759 6.54383 73.0836 7.06092H70.5142C70.6016 6.36553 70.8463 5.73254 71.2483 5.16196C71.6678 4.59138 72.2097 4.10104 72.8739 3.69094C73.5556 3.263 74.3334 2.93314 75.2074 2.70134C76.0988 2.46954 77.0427 2.35364 78.039 2.35364H78.2487C79.6121 2.35364 80.7744 2.51412 81.7358 2.83507C82.6972 3.15602 83.4837 3.64636 84.0955 4.30609C84.7072 4.96582 85.153 5.80386 85.4326 6.82021C85.7123 7.83655 85.8609 9.04012 85.8783 10.4309V17.2779H83.44V10.6181L80.7395 10.5914C81.2639 11.3224 81.526 12.2318 81.526 13.3195ZM72.3233 13.1322C72.3408 13.9881 72.5855 14.6389 73.0574 15.0847C73.5294 15.5126 74.2897 15.7266 75.3384 15.7266H76.2299C77.2437 15.7266 77.9865 15.5126 78.4585 15.0847C78.9304 14.6568 79.1838 14.0059 79.2188 13.1322C79.1838 12.2585 78.9391 11.6166 78.4847 11.2065C78.0302 10.7964 77.2786 10.5914 76.2299 10.5914H75.3384C74.2897 10.5914 73.5294 10.7964 73.0574 11.2065C72.5855 11.6166 72.3408 12.2585 72.3233 13.1322Z" fill="white"/>
    <path d="M81.526 13.3195C81.5086 14.8351 81.0454 15.9851 80.1365 16.7697C79.245 17.5542 77.9428 17.9465 76.2299 17.9465H75.3384C73.6255 17.9465 72.2971 17.5542 71.3532 16.7697C70.4093 15.9673 69.9199 14.7548 69.885 13.1322C69.885 11.5453 70.3656 10.3774 71.327 9.62853C72.2883 8.86181 73.6255 8.47845 75.3384 8.47845H83.3876C83.3002 7.69391 83.0817 7.05201 82.7321 6.55275C82.3825 6.03566 81.9718 5.63447 81.4998 5.34918C81.0279 5.04606 80.5123 4.84101 79.9529 4.73403C79.4111 4.60921 78.9042 4.5468 78.4323 4.5468H78.1701C77.6981 4.5468 77.2087 4.58247 76.7018 4.65379C76.1949 4.72511 75.7055 4.85884 75.2336 5.05498C74.7616 5.23328 74.3334 5.48291 73.9489 5.80386C73.5643 6.12481 73.2759 6.54383 73.0836 7.06092H70.5142C70.6016 6.36553 70.8463 5.73254 71.2483 5.16196C71.6678 4.59138 72.2097 4.10104 72.8739 3.69094C73.5556 3.263 74.3334 2.93314 75.2074 2.70134C76.0988 2.46954 77.0427 2.35364 78.039 2.35364H78.2487C79.6121 2.35364 80.7744 2.51412 81.7358 2.83507C82.6972 3.15602 83.4837 3.64636 84.0955 4.30609C84.7072 4.96582 85.153 5.80386 85.4326 6.82021C85.7123 7.83655 85.8609 9.04012 85.8783 10.4309V17.2779H83.44V10.6181L80.7395 10.5914C81.2639 11.3224 81.526 12.2318 81.526 13.3195ZM72.3233 13.1322C72.3408 13.9881 72.5855 14.6389 73.0574 15.0847C73.5294 15.5126 74.2897 15.7266 75.3384 15.7266H76.2299C77.2437 15.7266 77.9865 15.5126 78.4585 15.0847C78.9304 14.6568 79.1838 14.0059 79.2188 13.1322C79.1838 12.2585 78.9391 11.6166 78.4847 11.2065C78.0302 10.7964 77.2786 10.5914 76.2299 10.5914H75.3384C74.2897 10.5914 73.5294 10.7964 73.0574 11.2065C72.5855 11.6166 72.3408 12.2585 72.3233 13.1322Z" fill="url(#paint4_linear)"/>
    <path d="M96.995 17.2244C95.6841 17.2422 94.6616 17.1352 93.9275 16.9034C93.1933 16.6716 92.6427 16.2615 92.2757 15.6731C91.9261 15.0669 91.7076 14.2377 91.6202 13.1857C91.5503 12.1159 91.5154 10.7608 91.5154 9.12036V5.32244H89.0246V3.12927H91.5416V0H93.9799L93.5342 3.12927H98.0962V5.32244H93.9799L93.9537 9.12036C93.9537 10.529 93.9712 11.6256 94.0061 12.4101C94.0586 13.1946 94.1809 13.7741 94.3732 14.1486C94.5829 14.523 94.8888 14.7459 95.2908 14.8172C95.7103 14.8886 96.2871 14.9242 97.0213 14.9242L96.995 17.2244Z" fill="white"/>
    <path d="M96.995 17.2244C95.6841 17.2422 94.6616 17.1352 93.9275 16.9034C93.1933 16.6716 92.6427 16.2615 92.2757 15.6731C91.9261 15.0669 91.7076 14.2377 91.6202 13.1857C91.5503 12.1159 91.5154 10.7608 91.5154 9.12036V5.32244H89.0246V3.12927H91.5416V0H93.9799L93.5342 3.12927H98.0962V5.32244H93.9799L93.9537 9.12036C93.9537 10.529 93.9712 11.6256 94.0061 12.4101C94.0586 13.1946 94.1809 13.7741 94.3732 14.1486C94.5829 14.523 94.8888 14.7459 95.2908 14.8172C95.7103 14.8886 96.2871 14.9242 97.0213 14.9242L96.995 17.2244Z" fill="url(#paint5_linear)"/>
    <path d="M116.68 10.1634C116.662 11.4651 116.444 12.6062 116.024 13.5869C115.622 14.5498 115.045 15.3522 114.294 15.9941C113.559 16.636 112.677 17.1174 111.646 17.4383C110.632 17.7593 109.504 17.9198 108.263 17.9198C107.005 17.9198 105.869 17.7593 104.855 17.4383C103.841 17.1352 102.967 16.6627 102.233 16.0208C101.516 15.3789 100.957 14.5676 100.555 13.5869C100.153 12.6062 99.9433 11.4562 99.9258 10.1367C99.9258 8.81724 100.127 7.66716 100.529 6.68648C100.931 5.68796 101.49 4.86776 102.207 4.22585C102.941 3.56612 103.815 3.07578 104.829 2.75483C105.86 2.41605 106.996 2.24666 108.237 2.24666C109.496 2.24666 110.64 2.40713 111.672 2.72808C112.703 3.04903 113.586 3.53938 114.32 4.19911C115.071 4.84101 115.648 5.66122 116.05 6.65973C116.47 7.65825 116.68 8.82615 116.68 10.1634ZM102.417 10.0832C102.452 12.0089 102.967 13.4264 103.963 14.3358C104.977 15.2273 106.411 15.6731 108.263 15.6731C110.116 15.6731 111.558 15.2273 112.589 14.3358C113.621 13.4443 114.154 12.0267 114.189 10.0832C114.154 8.13967 113.612 6.72214 112.563 5.83061C111.514 4.92125 110.064 4.46657 108.211 4.46657C106.358 4.46657 104.934 4.92125 103.937 5.83061C102.958 6.72214 102.452 8.13967 102.417 10.0832Z" fill="white"/>
    <path d="M116.68 10.1634C116.662 11.4651 116.444 12.6062 116.024 13.5869C115.622 14.5498 115.045 15.3522 114.294 15.9941C113.559 16.636 112.677 17.1174 111.646 17.4383C110.632 17.7593 109.504 17.9198 108.263 17.9198C107.005 17.9198 105.869 17.7593 104.855 17.4383C103.841 17.1352 102.967 16.6627 102.233 16.0208C101.516 15.3789 100.957 14.5676 100.555 13.5869C100.153 12.6062 99.9433 11.4562 99.9258 10.1367C99.9258 8.81724 100.127 7.66716 100.529 6.68648C100.931 5.68796 101.49 4.86776 102.207 4.22585C102.941 3.56612 103.815 3.07578 104.829 2.75483C105.86 2.41605 106.996 2.24666 108.237 2.24666C109.496 2.24666 110.64 2.40713 111.672 2.72808C112.703 3.04903 113.586 3.53938 114.32 4.19911C115.071 4.84101 115.648 5.66122 116.05 6.65973C116.47 7.65825 116.68 8.82615 116.68 10.1634ZM102.417 10.0832C102.452 12.0089 102.967 13.4264 103.963 14.3358C104.977 15.2273 106.411 15.6731 108.263 15.6731C110.116 15.6731 111.558 15.2273 112.589 14.3358C113.621 13.4443 114.154 12.0267 114.189 10.0832C114.154 8.13967 113.612 6.72214 112.563 5.83061C111.514 4.92125 110.064 4.46657 108.211 4.46657C106.358 4.46657 104.934 4.92125 103.937 5.83061C102.958 6.72214 102.452 8.13967 102.417 10.0832Z" fill="url(#paint6_linear)"/>
    <path d="M127.828 4.84101C126.954 4.84101 126.15 4.94799 125.415 5.16196C124.681 5.3581 124.043 5.67013 123.501 6.09807C122.96 6.526 122.54 7.08767 122.243 7.78306C121.946 8.46062 121.789 9.28975 121.771 10.2704L121.745 17.2779H119.333V3.10253H121.771L121.456 5.2422C122.173 4.38633 123.073 3.74443 124.157 3.31649C125.241 2.87073 126.464 2.64784 127.828 2.64784H131V4.84101H127.828Z" fill="white"/>
    <path d="M127.828 4.84101C126.954 4.84101 126.15 4.94799 125.415 5.16196C124.681 5.3581 124.043 5.67013 123.501 6.09807C122.96 6.526 122.54 7.08767 122.243 7.78306C121.946 8.46062 121.789 9.28975 121.771 10.2704L121.745 17.2779H119.333V3.10253H121.771L121.456 5.2422C122.173 4.38633 123.073 3.74443 124.157 3.31649C125.241 2.87073 126.464 2.64784 127.828 2.64784H131V4.84101H127.828Z" fill="url(#paint7_linear)"/>
    <defs>
        <linearGradient id="paint0_linear" x1="-0.41459" y1="17.2778" x2="131.745" y2="3.43224" gradientUnits="userSpaceOnUse">
            <stop stop-color="#FADF82"/>
            <stop offset="1" stop-color="#996BF3"/>
        </linearGradient>
        <linearGradient id="paint1_linear" x1="-0.41459" y1="17.2778" x2="131.745" y2="3.43224" gradientUnits="userSpaceOnUse">
            <stop stop-color="#FADF82"/>
            <stop offset="1" stop-color="#996BF3"/>
        </linearGradient>
        <linearGradient id="paint2_linear" x1="-0.41459" y1="17.2778" x2="131.745" y2="3.43224" gradientUnits="userSpaceOnUse">
            <stop stop-color="#FADF82"/>
            <stop offset="1" stop-color="#996BF3"/>
        </linearGradient>
        <linearGradient id="paint3_linear" x1="-0.41459" y1="17.2778" x2="131.745" y2="3.43224" gradientUnits="userSpaceOnUse">
            <stop stop-color="#FADF82"/>
            <stop offset="1" stop-color="#996BF3"/>
        </linearGradient>
        <linearGradient id="paint4_linear" x1="-0.41459" y1="17.2778" x2="131.745" y2="3.43224" gradientUnits="userSpaceOnUse">
            <stop stop-color="#FADF82"/>
            <stop offset="1" stop-color="#996BF3"/>
        </linearGradient>
        <linearGradient id="paint5_linear" x1="-0.41459" y1="17.2778" x2="131.745" y2="3.43224" gradientUnits="userSpaceOnUse">
            <stop stop-color="#FADF82"/>
            <stop offset="1" stop-color="#996BF3"/>
        </linearGradient>
        <linearGradient id="paint6_linear" x1="-0.41459" y1="17.2778" x2="131.745" y2="3.43224" gradientUnits="userSpaceOnUse">
            <stop stop-color="#FADF82"/>
            <stop offset="1" stop-color="#996BF3"/>
        </linearGradient>
        <linearGradient id="paint7_linear" x1="-0.41459" y1="17.2778" x2="131.745" y2="3.43224" gradientUnits="userSpaceOnUse">
            <stop stop-color="#FADF82"/>
            <stop offset="1" stop-color="#996BF3"/>
        </linearGradient>
    </defs>
</svg>